<svg version="1.1" xmlns="http://www.w3.org/2000/svg" viewBox="0 0 361.10201780631746 238.43319017308528" width="722.2040356126349" height="60" filter="invert(93%) hue-rotate(180deg)">
  <!-- svg-source:excalidraw -->
  
  <defs>
    <style class="style-fonts">
      @font-face {
        font-family: "Virgil";
        src: url("https://excalidraw.com/Virgil.woff2");
      }
      @font-face {
        font-family: "Cascadia";
        src: url("https://excalidraw.com/Cascadia.woff2");
      }
      @font-face {
        font-family: "Assistant";
        src: url("https://excalidraw.com/Assistant-Regular.woff2");
      }
    </style>
    
  </defs>
  <g stroke-linecap="round"><g transform="translate(10.034996913000668 118.2310097127725) rotate(0 53.665160459909885 -41.08017690838767)"><path d="M0 0 C17.89 -13.69, 89.44 -68.47, 107.33 -82.16 M0 0 C17.89 -13.69, 89.44 -68.47, 107.33 -82.16" stroke="#1e1e1e" stroke-width="4" fill="none"></path></g></g><mask></mask><g stroke-linecap="round"><g transform="translate(117.71128183561109 36.54034235519015) rotate(0 63.23404099124309 83.09803074118796)"><path d="M0 0 C21.08 27.7, 105.39 138.5, 126.47 166.2 M0 0 C21.08 27.7, 105.39 138.5, 126.47 166.2" stroke="#1e1e1e" stroke-width="4" fill="none"></path></g></g><mask></mask><g stroke-linecap="round"><g transform="translate(245.001833955115 202.36167549348733) rotate(0 53.05009192560124 -42.42007337253102)"><path d="M0 0 C17.68 -14.14, 88.42 -70.7, 106.1 -84.84 M0 0 C17.68 -14.14, 88.42 -70.7, 106.1 -84.84" stroke="#1e1e1e" stroke-width="4" fill="none"></path></g></g><mask></mask><g stroke-linecap="round"><g transform="translate(350.2090941806332 116.61844370349093) rotate(0 -40.960289702928094 -53.17322026841781)"><path d="M0 0 C-13.65 -17.72, -68.27 -88.62, -81.92 -106.35 M0 0 C-13.65 -17.72, -68.27 -88.62, -81.92 -106.35" stroke="#1e1e1e" stroke-width="4" fill="none"></path></g></g><mask></mask><g stroke-linecap="round"><g transform="translate(190.8530522434803 70.49884637127303) rotate(0 38.59560453275094 -30.249423185636516)"><path d="M0 0 C12.87 -10.08, 64.33 -50.42, 77.19 -60.5 M0 0 C12.87 -10.08, 64.33 -50.42, 77.19 -60.5" stroke="#1e1e1e" stroke-width="4" fill="none"></path></g></g><mask></mask><g stroke-linecap="round"><g transform="translate(10 118.13558698357218) rotate(0 41.79862473021467 54.95267119642867)"><path d="M0 0 C13.93 18.32, 69.66 91.59, 83.6 109.91 M0 0 C13.93 18.32, 69.66 91.59, 83.6 109.91" stroke="#1e1e1e" stroke-width="4" fill="none"></path></g></g><mask></mask><g stroke-linecap="round"><g transform="translate(94.01741849981204 228.43319017308528) rotate(0 39.35323587799678 -30.67032948855089)"><path d="M0 0 C13.12 -10.22, 65.59 -51.12, 78.71 -61.34 M0 0 C13.12 -10.22, 65.59 -51.12, 78.71 -61.34" stroke="#1e1e1e" stroke-width="4" fill="none"></path></g></g><mask></mask></svg>