<svg version="1.1" xmlns="http://www.w3.org/2000/svg" viewBox="0 0 696.9689926199715 124.11529254448777" width="1393.937985239943" height="56" filter="invert(100%) hue-rotate(180deg)">
  <!-- svg-source:excalidraw -->
  
  <defs>
    <style class="style-fonts">
      @font-face {
        font-family: "Virgil";
        src: url("https://excalidraw.com/Virgil.woff2");
      }
      @font-face {
        font-family: "Cascadia";
        src: url("https://excalidraw.com/Cascadia.woff2");
      }
      @font-face {
        font-family: "Assistant";
        src: url("https://excalidraw.com/Assistant-Regular.woff2");
      }
    </style>
    
  </defs>
  <g stroke-linecap="round" transform="translate(10 38.5900038129123) rotate(0 9.410877921312135 37.286137637324714)"><path d="M0 0 L18.82 0 L18.82 74.57 L0 74.57" stroke="none" stroke-width="0" fill="#0800ff"></path><path d="M0 0 C5.43 0, 10.86 0, 18.82 0 M0 0 C4.38 0, 8.77 0, 18.82 0 M18.82 0 C18.82 21.1, 18.82 42.19, 18.82 74.57 M18.82 0 C18.82 23.02, 18.82 46.05, 18.82 74.57 M18.82 74.57 C14.57 74.57, 10.32 74.57, 0 74.57 M18.82 74.57 C12.01 74.57, 5.2 74.57, 0 74.57 M0 74.57 C0 46.56, 0 18.54, 0 0 M0 74.57 C0 59.34, 0 44.1, 0 0" stroke="#0800ff" stroke-width="2" fill="none"></path></g><g stroke-linecap="round" transform="translate(10 10) rotate(0 9.291741241824639 8.577001143873673)"><path d="M0 0 L18.58 0 L18.58 17.15 L0 17.15" stroke="none" stroke-width="0" fill="#0800ff"></path><path d="M0 0 C7.06 0, 14.13 0, 18.58 0 M0 0 C4.84 0, 9.67 0, 18.58 0 M18.58 0 C18.58 4.61, 18.58 9.23, 18.58 17.15 M18.58 0 C18.58 5.79, 18.58 11.58, 18.58 17.15 M18.58 17.15 C12.52 17.15, 6.45 17.15, 0 17.15 M18.58 17.15 C12.58 17.15, 6.58 17.15, 0 17.15 M0 17.15 C0 10.32, 0 3.48, 0 0 M0 17.15 C0 11.47, 0 5.79, 0 0" stroke="#0800ff" stroke-width="2" fill="none"></path></g><g stroke-linecap="round"><g transform="translate(131.26928683433744 113.40052045494713) rotate(0 -28.35174644973199 -51.462010862190766)" fill-rule="evenodd"><path d="M0 0 L17.87 -0.24 L16.68 -102.92 L-2.62 -102.45 L-1.67 -51.7 L-53.84 -101.97 L-73.38 -101.49 L-74.57 -0.48 L-57.66 -0.95 L-57.89 -80.05 L-49.56 -79.81 L-0.24 -27.88 L0 0" stroke="none" stroke-width="0" fill="#0800ff" fill-rule="evenodd"></path><path d="M0 0 C5.84 -0.08, 11.67 -0.16, 17.87 -0.24 M0 0 C6.22 -0.08, 12.43 -0.17, 17.87 -0.24 M17.87 -0.24 C17.4 -40.34, 16.94 -80.43, 16.68 -102.92 M17.87 -0.24 C17.62 -21.5, 17.38 -42.75, 16.68 -102.92 M16.68 -102.92 C12.3 -102.82, 7.92 -102.71, -2.62 -102.45 M16.68 -102.92 C11.18 -102.79, 5.68 -102.65, -2.62 -102.45 M-2.62 -102.45 C-2.32 -86.56, -2.02 -70.68, -1.67 -51.7 M-2.62 -102.45 C-2.36 -88.47, -2.1 -74.5, -1.67 -51.7 M-1.67 -51.7 C-20.11 -69.47, -38.55 -87.24, -53.84 -101.97 M-1.67 -51.7 C-12.45 -62.09, -23.24 -72.48, -53.84 -101.97 M-53.84 -101.97 C-60.78 -101.8, -67.72 -101.63, -73.38 -101.49 M-53.84 -101.97 C-61.03 -101.8, -68.22 -101.62, -73.38 -101.49 M-73.38 -101.49 C-73.74 -70.96, -74.1 -40.43, -74.57 -0.48 M-73.38 -101.49 C-73.66 -78, -73.94 -54.5, -74.57 -0.48 M-74.57 -0.48 C-70.66 -0.59, -66.74 -0.7, -57.66 -0.95 M-74.57 -0.48 C-68.06 -0.66, -61.54 -0.84, -57.66 -0.95 M-57.66 -0.95 C-57.73 -25.21, -57.8 -49.47, -57.89 -80.05 M-57.66 -0.95 C-57.71 -20.32, -57.77 -39.69, -57.89 -80.05 M-57.89 -80.05 C-55.44 -79.98, -52.99 -79.91, -49.56 -79.81 M-57.89 -80.05 C-54.63 -79.96, -51.37 -79.87, -49.56 -79.81 M-49.56 -79.81 C-37.84 -67.47, -26.12 -55.13, -0.24 -27.88 M-49.56 -79.81 C-35.34 -64.84, -21.12 -49.86, -0.24 -27.88 M-0.24 -27.88 C-0.16 -18.59, -0.08 -9.31, 0 0 M-0.24 -27.88 C-0.19 -21.98, -0.14 -16.09, 0 0 M0 0 C0 0, 0 0, 0 0 M0 0 C0 0, 0 0, 0 0" stroke="#0800ff" stroke-width="2" fill="none"></path></g></g><mask></mask><g stroke-linecap="round"><g transform="translate(174.54028237392185 49.05394497190434) rotate(0 31.375141964634622 32.30195987247839)" fill-rule="evenodd"><path d="M0 0 L0.09 65.06 L21.06 65.06 L21.06 17.17 L62.75 17.17 L62.75 -0.46 L0 0" stroke="none" stroke-width="0" fill="#0800ff" fill-rule="evenodd"></path><path d="M0 0 C0.03 21.16, 0.06 42.33, 0.09 65.06 M0 0 C0.03 22.52, 0.06 45.04, 0.09 65.06 M0.09 65.06 C7.58 65.06, 15.08 65.06, 21.06 65.06 M0.09 65.06 C6.22 65.06, 12.35 65.06, 21.06 65.06 M21.06 65.06 C21.06 54.67, 21.06 44.27, 21.06 17.17 M21.06 65.06 C21.06 54.47, 21.06 43.88, 21.06 17.17 M21.06 17.17 C31.23 17.17, 41.41 17.17, 62.75 17.17 M21.06 17.17 C36.21 17.17, 51.36 17.17, 62.75 17.17 M62.75 17.17 C62.75 13.55, 62.75 9.93, 62.75 -0.46 M62.75 17.17 C62.75 12.14, 62.75 7.11, 62.75 -0.46 M62.75 -0.46 C39.49 -0.29, 16.23 -0.12, 0 0 M62.75 -0.46 C49.38 -0.36, 36.01 -0.26, 0 0 M0 0 C0 0, 0 0, 0 0 M0 0 C0 0, 0 0, 0 0" stroke="#0800ff" stroke-width="2" fill="none"></path></g></g><mask></mask><g stroke-linecap="round" transform="translate(175.86895624187218 10.286151725296918) rotate(0 35.051721504278476 8.22201372466111)"><path d="M0 0 L70.1 0 L70.1 16.44 L0 16.44" stroke="none" stroke-width="0" fill="#0800ff"></path><path d="M0 0 C24.29 0, 48.59 0, 70.1 0 M0 0 C20.34 0, 40.67 0, 70.1 0 M70.1 0 C70.1 5.94, 70.1 11.87, 70.1 16.44 M70.1 0 C70.1 3.45, 70.1 6.9, 70.1 16.44 M70.1 16.44 C52.69 16.44, 35.28 16.44, 0 16.44 M70.1 16.44 C42.98 16.44, 15.86 16.44, 0 16.44 M0 16.44 C0 11.68, 0 6.92, 0 0 M0 16.44 C0 12.36, 0 8.28, 0 0" stroke="#0800ff" stroke-width="2" fill="none"></path></g><g stroke-linecap="round" transform="translate(271.7214134746805 38.830721804015354) rotate(0 9.410877921312135 37.286137637324686)"><path d="M0 0 L18.82 0 L18.82 74.57 L0 74.57" stroke="none" stroke-width="0" fill="#0800ff"></path><path d="M0 0 C5.17 0, 10.33 0, 18.82 0 M0 0 C5.52 0, 11.04 0, 18.82 0 M18.82 0 C18.82 28.43, 18.82 56.86, 18.82 74.57 M18.82 0 C18.82 20.52, 18.82 41.05, 18.82 74.57 M18.82 74.57 C13.9 74.57, 8.97 74.57, 0 74.57 M18.82 74.57 C12.91 74.57, 7.01 74.57, 0 74.57 M0 74.57 C0 52.34, 0 30.12, 0 0 M0 74.57 C0 44.76, 0 14.94, 0 0" stroke="#0800ff" stroke-width="2" fill="none"></path></g><g stroke-linecap="round" transform="translate(271.7214134746805 10.24071799110311) rotate(0 9.291741241824639 8.577001143873673)"><path d="M0 0 L18.58 0 L18.58 17.15 L0 17.15" stroke="none" stroke-width="0" fill="#0800ff"></path><path d="M0 0 C6.87 0, 13.73 0, 18.58 0 M0 0 C5.38 0, 10.76 0, 18.58 0 M18.58 0 C18.58 5.31, 18.58 10.62, 18.58 17.15 M18.58 0 C18.58 4.61, 18.58 9.22, 18.58 17.15 M18.58 17.15 C14.55 17.15, 10.52 17.15, 0 17.15 M18.58 17.15 C11.78 17.15, 4.97 17.15, 0 17.15 M0 17.15 C0 10.59, 0 4.02, 0 0 M0 17.15 C0 11.56, 0 5.97, 0 0" stroke="#0800ff" stroke-width="2" fill="none"></path></g><g stroke-linecap="round"><g transform="translate(392.45813826152107 113.85878841343066) rotate(0 -28.35174644973199 -51.46201086219074)" fill-rule="evenodd"><path d="M0 0 L17.87 -0.24 L16.68 -102.92 L-2.62 -102.45 L-1.67 -51.7 L-53.84 -101.97 L-73.38 -101.49 L-74.57 -0.48 L-57.66 -0.95 L-57.89 -80.05 L-49.56 -79.81 L-0.24 -27.88 L0 0" stroke="none" stroke-width="0" fill="#0800ff" fill-rule="evenodd"></path><path d="M0 0 C5.85 -0.08, 11.71 -0.16, 17.87 -0.24 M0 0 C3.98 -0.05, 7.97 -0.11, 17.87 -0.24 M17.87 -0.24 C17.56 -26.72, 17.25 -53.2, 16.68 -102.92 M17.87 -0.24 C17.48 -33.6, 17.09 -66.95, 16.68 -102.92 M16.68 -102.92 C11.25 -102.79, 5.82 -102.66, -2.62 -102.45 M16.68 -102.92 C11.83 -102.8, 6.97 -102.68, -2.62 -102.45 M-2.62 -102.45 C-2.43 -92.03, -2.23 -81.62, -1.67 -51.7 M-2.62 -102.45 C-2.27 -83.77, -1.92 -65.08, -1.67 -51.7 M-1.67 -51.7 C-13.28 -62.89, -24.89 -74.08, -53.84 -101.97 M-1.67 -51.7 C-16.95 -66.43, -32.24 -81.15, -53.84 -101.97 M-53.84 -101.97 C-58.46 -101.86, -63.07 -101.75, -73.38 -101.49 M-53.84 -101.97 C-61.09 -101.79, -68.34 -101.62, -73.38 -101.49 M-73.38 -101.49 C-73.84 -62.71, -74.3 -23.93, -74.57 -0.48 M-73.38 -101.49 C-73.8 -66.16, -74.21 -30.83, -74.57 -0.48 M-74.57 -0.48 C-68.41 -0.65, -62.25 -0.82, -57.66 -0.95 M-74.57 -0.48 C-70.27 -0.6, -65.97 -0.72, -57.66 -0.95 M-57.66 -0.95 C-57.74 -29.43, -57.83 -57.9, -57.89 -80.05 M-57.66 -0.95 C-57.72 -21.64, -57.78 -42.33, -57.89 -80.05 M-57.89 -80.05 C-54.85 -79.97, -51.81 -79.88, -49.56 -79.81 M-57.89 -80.05 C-54.76 -79.96, -51.62 -79.87, -49.56 -79.81 M-49.56 -79.81 C-34.36 -63.81, -19.17 -47.82, -0.24 -27.88 M-49.56 -79.81 C-34.49 -63.95, -19.43 -48.09, -0.24 -27.88 M-0.24 -27.88 C-0.15 -17.35, -0.06 -6.82, 0 0 M-0.24 -27.88 C-0.16 -18.59, -0.08 -9.3, 0 0 M0 0 C0 0, 0 0, 0 0 M0 0 C0 0, 0 0, 0 0" stroke="#0800ff" stroke-width="2" fill="none"></path></g></g><mask></mask><g stroke-linecap="round" transform="translate(436.22921122016305 39.360698829179455) rotate(0 9.410877921312135 37.286137637324714)"><path d="M0 0 L18.82 0 L18.82 74.57 L0 74.57" stroke="none" stroke-width="0" fill="#0800ff"></path><path d="M0 0 C6.62 0, 13.24 0, 18.82 0 M0 0 C6.36 0, 12.72 0, 18.82 0 M18.82 0 C18.82 20.55, 18.82 41.09, 18.82 74.57 M18.82 0 C18.82 19.78, 18.82 39.56, 18.82 74.57 M18.82 74.57 C15.04 74.57, 11.27 74.57, 0 74.57 M18.82 74.57 C12.11 74.57, 5.4 74.57, 0 74.57 M0 74.57 C0 54.54, 0 34.5, 0 0 M0 74.57 C0 58.43, 0 42.28, 0 0" stroke="#0800ff" stroke-width="2" fill="none"></path></g><g stroke-linecap="round" transform="translate(436.22921122016305 10.770695016267268) rotate(0 9.291741241824639 8.577001143873673)"><path d="M0 0 L18.58 0 L18.58 17.15 L0 17.15" stroke="none" stroke-width="0" fill="#0800ff"></path><path d="M0 0 C3.75 0, 7.5 0, 18.58 0 M0 0 C7.33 0, 14.66 0, 18.58 0 M18.58 0 C18.58 4.78, 18.58 9.57, 18.58 17.15 M18.58 0 C18.58 4.82, 18.58 9.64, 18.58 17.15 M18.58 17.15 C12.33 17.15, 6.07 17.15, 0 17.15 M18.58 17.15 C14.34 17.15, 10.1 17.15, 0 17.15 M0 17.15 C0 12.95, 0 8.74, 0 0 M0 17.15 C0 12.87, 0 8.58, 0 0" stroke="#0800ff" stroke-width="2" fill="none"></path></g><g stroke-linecap="round" transform="translate(575.0732597740177 39.04844948478075) rotate(0 9.410877921312249 37.286137637324686)"><path d="M0 0 L18.82 0 L18.82 74.57 L0 74.57" stroke="none" stroke-width="0" fill="#0800ff"></path><path d="M0 0 C6.74 0, 13.48 0, 18.82 0 M0 0 C6.8 0, 13.61 0, 18.82 0 M18.82 0 C18.82 21.29, 18.82 42.58, 18.82 74.57 M18.82 0 C18.82 15.18, 18.82 30.37, 18.82 74.57 M18.82 74.57 C12.76 74.57, 6.7 74.57, 0 74.57 M18.82 74.57 C11.41 74.57, 4 74.57, 0 74.57 M0 74.57 C0 47.46, 0 20.35, 0 0 M0 74.57 C0 51.71, 0 28.85, 0 0" stroke="#0800ff" stroke-width="2" fill="none"></path></g><g stroke-linecap="round" transform="translate(575.0732597740177 10.45844567186856) rotate(0 9.291741241824639 8.577001143873673)"><path d="M0 0 L18.58 0 L18.58 17.15 L0 17.15" stroke="none" stroke-width="0" fill="#0800ff"></path><path d="M0 0 C7.11 0, 14.23 0, 18.58 0 M0 0 C7.08 0, 14.15 0, 18.58 0 M18.58 0 C18.58 6.81, 18.58 13.62, 18.58 17.15 M18.58 0 C18.58 3.45, 18.58 6.89, 18.58 17.15 M18.58 17.15 C11.94 17.15, 5.31 17.15, 0 17.15 M18.58 17.15 C13.32 17.15, 8.06 17.15, 0 17.15 M0 17.15 C0 11.35, 0 5.54, 0 0 M0 17.15 C0 10.96, 0 4.77, 0 0" stroke="#0800ff" stroke-width="2" fill="none"></path></g><g stroke-linecap="round" transform="translate(506.28965436938597 39.56263887846126) rotate(0 8.307096913020246 36.66804067846485)"><path d="M0 0 L16.61 0 L16.61 73.34 L0 73.34" stroke="none" stroke-width="0" fill="#0800ff"></path><path d="M0 0 C5.87 0, 11.74 0, 16.61 0 M0 0 C5.14 0, 10.28 0, 16.61 0 M16.61 0 C16.61 28.31, 16.61 56.62, 16.61 73.34 M16.61 0 C16.61 20.98, 16.61 41.96, 16.61 73.34 M16.61 73.34 C10.16 73.34, 3.7 73.34, 0 73.34 M16.61 73.34 C11.83 73.34, 7.05 73.34, 0 73.34 M0 73.34 C0 52.53, 0 31.73, 0 0 M0 73.34 C0 49.32, 0 25.31, 0 0" stroke="#0800ff" stroke-width="2" fill="none"></path></g><g stroke-linecap="round" transform="translate(473.06127543179673 10.487804040135927) rotate(0 41.47056596710979 8.37199372478463)"><path d="M0 0 L82.94 0 L82.94 16.74 L0 16.74" stroke="none" stroke-width="0" fill="#0800ff"></path><path d="M0 0 C20.27 0, 40.53 0, 82.94 0 M0 0 C27.74 0, 55.49 0, 82.94 0 M82.94 0 C82.94 5.37, 82.94 10.73, 82.94 16.74 M82.94 0 C82.94 6.01, 82.94 12.01, 82.94 16.74 M82.94 16.74 C55.06 16.74, 27.17 16.74, 0 16.74 M82.94 16.74 C58.51 16.74, 34.07 16.74, 0 16.74 M0 16.74 C0 10.17, 0 3.59, 0 0 M0 16.74 C0 13, 0 9.25, 0 0" stroke="#0800ff" stroke-width="2" fill="none"></path></g><g stroke-linecap="round"><g transform="translate(628.8193229433207 27.491385272630794) rotate(0 22.000825278527827 35.62965356433733)" fill-rule="evenodd"><path d="M0 0 L21.68 22.33 L45.56 0.26 L57.76 11.42 L33.88 33.49 L58.15 58.41 L46.73 71.26 L23.2 45.54 L-1.56 69.83 L-14.15 58.02 L12.85 34.14 L-12.32 11.72 L0 0" stroke="none" stroke-width="0" fill="#0800ff" fill-rule="evenodd"></path><path d="M0 0 C8.54 8.8, 17.09 17.6, 21.68 22.33 M0 0 C8.42 8.67, 16.84 17.35, 21.68 22.33 M21.68 22.33 C29.35 15.24, 37.02 8.15, 45.56 0.26 M21.68 22.33 C29.21 15.36, 36.75 8.4, 45.56 0.26 M45.56 0.26 C49.31 3.7, 53.07 7.13, 57.76 11.42 M45.56 0.26 C49.73 4.08, 53.91 7.9, 57.76 11.42 M57.76 11.42 C50.25 18.36, 42.74 25.3, 33.88 33.49 M57.76 11.42 C49.62 18.94, 41.48 26.46, 33.88 33.49 M33.88 33.49 C38.84 38.58, 43.79 43.67, 58.15 58.41 M33.88 33.49 C39.8 39.57, 45.72 45.65, 58.15 58.41 M58.15 58.41 C55.66 61.21, 53.17 64.01, 46.73 71.26 M58.15 58.41 C53.93 63.16, 49.71 67.9, 46.73 71.26 M46.73 71.26 C40.89 64.87, 35.04 58.49, 23.2 45.54 M46.73 71.26 C38.61 62.38, 30.49 53.51, 23.2 45.54 M23.2 45.54 C15.39 53.2, 7.58 60.87, -1.56 69.83 M23.2 45.54 C17.41 51.22, 11.62 56.9, -1.56 69.83 M-1.56 69.83 C-4.6 66.97, -7.65 64.11, -14.15 58.02 M-1.56 69.83 C-4.82 66.77, -8.08 63.72, -14.15 58.02 M-14.15 58.02 C-5.3 50.19, 3.55 42.36, 12.85 34.14 M-14.15 58.02 C-5.28 50.17, 3.59 42.33, 12.85 34.14 M12.85 34.14 C7.19 29.09, 1.52 24.05, -12.32 11.72 M12.85 34.14 C3.76 26.04, -5.33 17.94, -12.32 11.72 M-12.32 11.72 C-9.69 9.22, -7.06 6.72, 0 0 M-12.32 11.72 C-9.72 9.25, -7.13 6.78, 0 0 M0 0 C0 0, 0 0, 0 0 M0 0 C0 0, 0 0, 0 0" stroke="#0800ff" stroke-width="2" fill="none"></path></g></g><mask></mask></svg>